<?xml version="1.0" encoding="UTF-8" standalone="no"?>
<svg
   xmlns:dc="http://purl.org/dc/elements/1.1/"
   xmlns:cc="http://creativecommons.org/ns#"
   xmlns:rdf="http://www.w3.org/1999/02/22-rdf-syntax-ns#"
   xmlns:svg="http://www.w3.org/2000/svg"
   xmlns="http://www.w3.org/2000/svg"
   xmlns:sodipodi="http://sodipodi.sourceforge.net/DTD/sodipodi-0.dtd"
   xmlns:inkscape="http://www.inkscape.org/namespaces/inkscape"
   width="210mm"
   height="297mm"
   viewBox="0 0 210 297"
   version="1.1"
   id="svg3959"
   inkscape:version="1.0.1 (3bc2e813f5, 2020-09-07)"
   sodipodi:docname="logo-forks.svg">
  <defs
     id="defs3953" />
  <sodipodi:namedview
     id="base"
     pagecolor="#ffffff"
     bordercolor="#666666"
     borderopacity="1.0"
     inkscape:pageopacity="0.0"
     inkscape:pageshadow="2"
     inkscape:zoom="0.7"
     inkscape:cx="-23.809484"
     inkscape:cy="610.79197"
     inkscape:document-units="mm"
     inkscape:current-layer="layer1"
     showgrid="false"
     inkscape:window-width="1918"
     inkscape:window-height="1186"
     inkscape:window-x="0"
     inkscape:window-y="12"
     inkscape:window-maximized="0"
     showguides="false"
     inkscape:document-rotation="0" />
  <metadata
     id="metadata3956">
    <rdf:RDF>
      <cc:Work
         rdf:about="">
        <dc:format>image/svg+xml</dc:format>
        <dc:type
           rdf:resource="http://purl.org/dc/dcmitype/StillImage" />
        <dc:title></dc:title>
      </cc:Work>
    </rdf:RDF>
  </metadata>
  <g
     inkscape:label="Layer 1"
     inkscape:groupmode="layer"
     id="layer1">
    <g
       transform="matrix(0.26458333,0,0,0.26458333,-687.40613,-996.89005)"
       id="g3877">
      <g
         id="g3875">
        <g
           id="g3873">
          <g
             id="g3871" />
        </g>
      </g>
    </g>
    <path
       style="fill:#fcb017;stroke-width:0.15623379"
       inkscape:connector-curvature="0"
       d="m 156.60357,122.03926 0.0575,0.18233 h -15.97179 c -0.71992,0 -1.33424,0.2495 -1.86214,0.74867 -0.49902,0.51822 -0.74868,1.14221 -0.74868,1.86199 0,0.71024 0.24966,1.31501 0.74868,1.81404 0.5279,0.5279 1.14222,0.78709 1.86214,0.78709 h 19.08162 c 0.27842,0 0.55667,-0.0287 0.82555,-0.0864 0.31668,-0.0671 0.5565,-0.17279 0.75836,-0.30714 0.23029,-0.13436 0.40307,-0.28795 0.55649,-0.44152 0.13437,-0.14389 0.27842,-0.3359 0.40325,-0.57588 0.10561,-0.18233 0.17264,-0.4223 0.20153,-0.73898 0.0287,-0.2592 0.0287,-0.5087 0.01,-0.77758 -0.12483,-0.931 -0.22076,-1.57422 -0.28809,-1.91965 -0.1439,-0.73899 -0.3359,-1.43016 -0.5565,-2.04448 -0.89272,-2.58191 -2.16931,-4.69357 -3.8107,-6.34449 -3.17701,-3.1003 -6.94912,-4.60718 -11.32617,-4.51125 -3.51293,0.0672 -7.09317,1.57405 -10.76951,4.51125 -0.83507,0.67196 -1.7756,1.50703 -2.80268,2.50522 -1.15176,1.11331 -2.52427,2.52425 -4.10801,4.21362 l -3.65697,3.9546 c 0.2592,0.33588 0.75836,0.95989 1.48766,1.86198 0.71024,0.89256 1.2958,1.61249 1.72779,2.16915 l 1.30534,1.60296 c 1.82371,2.30366 2.93719,3.6954 3.3498,4.19456 0.91179,1.14223 2.06354,2.22681 3.45527,3.26357 1.18066,0.87351 2.35163,1.58375 3.54182,2.14993 1.54547,0.73915 3.10983,1.23816 4.6553,1.48782 h 0.0482 c 0.98865,0.15358 1.98683,0.21123 2.98501,0.19201 h 0.0383 c 0.83523,-0.0288 1.65092,-0.12468 2.41881,-0.27826 1.59343,-0.25918 2.98516,-0.75835 4.19456,-1.49734 1.67968,-0.91178 3.25388,-2.26523 4.70327,-4.09848 0.12483,-0.15358 0.23998,-0.28794 0.35513,-0.43198 v 0 l 0.73897,-0.93101 c 0.44152,-0.56634 0.624,-1.21893 0.53744,-1.94838 -0.0767,-0.70071 -0.39354,-1.26706 -0.95989,-1.71827 -0.55667,-0.4415 -1.19988,-0.62399 -1.91965,-0.56633 -0.71023,0.1056 -1.29581,0.43198 -1.72778,0.99817 l -1.1038,1.33424 c -0.48948,0.624 -1.00771,1.16144 -1.56453,1.65091 -0.47994,0.41277 -1.01755,0.81586 -1.62217,1.19019 -0.48948,0.24966 -1.03661,0.46075 -1.63171,0.65275 -0.79663,0.23998 -1.68919,0.38386 -2.6491,0.4223 -0.66227,0.0287 -1.3247,-0.0193 -2.00619,-0.14405 h 0.0384 c -1.07505,-0.15357 -2.15963,-0.51822 -3.25389,-1.07504 -1.56452,-0.73899 -2.97548,-1.7181 -4.22316,-2.93705 -0.60478,-0.59509 -1.75654,-1.93885 -3.44589,-4.0313 -1.54547,-1.91963 -2.37085,-2.97547 -2.49568,-3.19623 0.18233,-0.20153 0.35496,-0.40307 0.51823,-0.59509 2.17883,-2.52442 4.22331,-4.58812 6.15264,-6.19092 2.76425,-2.30367 5.35585,-3.48433 7.77467,-3.54182 1.4686,-0.0481 2.81237,0.19201 4.06021,0.71977 1.21908,0.51838 2.35163,1.33424 3.40745,2.43803 1.26736,1.34393 2.11197,2.67801 2.50568,4.02177 z"
       id="path3865" />
    <path
       style="fill:#6c6c6c;stroke-width:0.15623379"
       inkscape:connector-curvature="0"
       d="m 121.2238,120.07165 c 0.14404,0.15358 0.63352,0.73899 1.45891,1.73733 0.37433,0.46072 1.21909,1.48764 2.52442,3.06187 l 3.65697,-3.9546 c -0.0481,-0.0576 -0.10562,-0.12482 -0.16326,-0.18232 -0.0479,-0.0576 -0.13421,-0.16312 -0.26873,-0.3167 -0.15358,-0.192 -0.27841,-0.35511 -0.38402,-0.47994 -0.10562,-0.12483 -0.28794,-0.3359 -0.53745,-0.66243 -0.28794,-0.35513 -0.52791,-0.65259 -0.71976,-0.87335 -1.62218,-1.90059 -2.81237,-3.22513 -3.58979,-4.00256 -3.13874,-3.13873 -7.00693,-4.71278 -11.59505,-4.71278 -4.25205,0 -7.98573,1.57405 -11.19165,4.71278 -3.042813,3.04282 -4.568905,6.80539 -4.568905,11.31665 0,4.44407 1.564681,8.21618 4.664825,11.31648 3.13859,3.14827 6.9396,4.71294 11.37414,4.71294 0.41277,0 0.80617,-0.0193 1.20925,-0.048 3.88741,-0.2784 7.25644,-1.83324 10.10724,-4.66482 0.27825,-0.27825 0.66211,-0.70056 1.11332,-1.25737 l 1.64139,2.15009 c 0.46073,0.5951 1.06536,0.92147 1.8045,1.01755 0.75836,0.0864 1.42064,-0.0961 2.00604,-0.54714 0.59525,-0.47994 0.94069,-1.06551 1.02708,-1.77574 0.12483,-0.77741 -0.0481,-1.45891 -0.50885,-2.05401 l -3.63775,-4.66483 c -0.57588,-0.74867 -1.19972,-1.16143 -1.8523,-1.22862 -0.73899,-0.0961 -1.39174,0.15359 -1.95809,0.72945 -0.38402,0.51839 -0.77757,1.05584 -1.18065,1.58376 -0.81601,1.05581 -1.58375,1.89088 -2.31336,2.51472 -2.36116,1.9773 -4.84715,2.97548 -7.45782,2.97548 -2.985,0 -5.53833,-1.05582 -7.6403,-3.16748 -2.08291,-2.08292 -3.11952,-4.61687 -3.11952,-7.59234 0,-3.08109 1.03661,-5.68223 3.11952,-7.8323 2.01557,-1.98684 4.50157,-2.96596 7.44845,-2.93705 2.04447,0.0384 3.9449,0.61431 5.68222,1.7181 0.77742,0.49901 1.60296,1.15191 2.46678,1.96776 0.4223,0.37386 0.88287,0.86351 1.3822,1.43938 z"
       id="path3867" />
    <path
       sodipodi:nodetypes="ccssscsc"
       style="display:inline;fill:#6c6c6c;fill-opacity:1;stroke:none;stroke-width:0.48978344;stroke-linecap:butt;stroke-linejoin:round;stroke-miterlimit:4;stroke-dasharray:none;stroke-opacity:1"
       d="M 31.148359,58.178616 C 332.13877,130.0073 47.408644,188.41501 47.408644,188.41501 c -5.609473,0.89641 -10.134255,3.81842 -12.858313,8.25872 -3.060132,4.9881 -3.319441,11.72789 -0.461822,16.46641 3.477237,5.76602 7.88301,7.76064 11.682891,8.61967 5.978347,1.35147 10.803962,-0.80214 10.803962,-0.80214 0,0 145.560288,-43.25667 144.466088,-86.46468 C 200.49218,112.802 156.40778,76.112618 31.148359,58.178616 Z"
       id="path4338"
       inkscape:connector-curvature="0" />
    <text
       xml:space="preserve"
       style="font-style:normal;font-variant:normal;font-weight:normal;font-stretch:normal;font-size:90.3111px;line-height:1.25;font-family:'Architects Daughter';-inkscape-font-specification:'Architects Daughter';letter-spacing:0px;word-spacing:0px;fill:#6c6c6c;fill-opacity:1;stroke:none;stroke-width:0.264583"
       x="54.806561"
       y="257.46365"
       id="text3731"><tspan
         sodipodi:role="line"
         id="tspan3729"
         x="54.806561"
         y="257.46365"
         style="font-style:normal;font-variant:normal;font-weight:normal;font-stretch:normal;font-size:50.8px;font-family:Ubuntu;-inkscape-font-specification:Ubuntu;fill:#6c6c6c;fill-opacity:1;stroke-width:0.264583">forks</tspan></text>
  </g>
</svg>
