<?xml version="1.0" encoding="UTF-8" standalone="no"?>
<svg
   xmlns:dc="http://purl.org/dc/elements/1.1/"
   xmlns:cc="http://creativecommons.org/ns#"
   xmlns:rdf="http://www.w3.org/1999/02/22-rdf-syntax-ns#"
   xmlns:svg="http://www.w3.org/2000/svg"
   xmlns="http://www.w3.org/2000/svg"
   xmlns:sodipodi="http://sodipodi.sourceforge.net/DTD/sodipodi-0.dtd"
   xmlns:inkscape="http://www.inkscape.org/namespaces/inkscape"
   width="190px"
   height="80px"
   version="1.1"
   xml:space="preserve"
   style="fill-rule:evenodd;clip-rule:evenodd;stroke-linejoin:round;stroke-miterlimit:1.41421;"
   id="svg96"
   sodipodi:docname="nlnet.svg"
   inkscape:version="1.0.2 (e86c870879, 2021-01-15)"><metadata
   id="metadata102"><rdf:RDF><cc:Work
       rdf:about=""><dc:format>image/svg+xml</dc:format><dc:type
         rdf:resource="http://purl.org/dc/dcmitype/StillImage" /><dc:title></dc:title></cc:Work></rdf:RDF></metadata><defs
   id="defs100" /><sodipodi:namedview
   pagecolor="#ffffff"
   bordercolor="#666666"
   borderopacity="1"
   objecttolerance="10"
   gridtolerance="10"
   guidetolerance="10"
   inkscape:pageopacity="0"
   inkscape:pageshadow="2"
   inkscape:window-width="1916"
   inkscape:window-height="1062"
   id="namedview98"
   showgrid="false"
   inkscape:zoom="11.551175"
   inkscape:cx="73.677033"
   inkscape:cy="34.027707"
   inkscape:window-x="0"
   inkscape:window-y="14"
   inkscape:window-maximized="0"
   inkscape:current-layer="g94" />
    <g
   transform="matrix(0.47619,0,0,0.47619,0.0952381,0)"
   id="g94">
        <g
   transform="matrix(0.869481,0,0,0.869481,4.11434,10.9736)"
   id="g4">
            <path
   d="m 446.603,73.881 2.499,-13.645 h -12.895 l 3.748,-20.092 -15.443,6.048 -2.499,14.044 h -9.397 l -2.499,13.645 h 9.247 l -3.149,17.293 c -0.15,0.95 -0.4,2.349 -0.65,4.148 -0.25,1.8 -0.4,3.399 -0.4,4.748 0.05,6.248 1.55,11.396 4.499,15.444 2.948,4.149 7.746,6.598 14.444,7.347 l 6.447,-13.294 c -3.448,-0.45 -6.047,-1.8 -7.897,-4.099 -1.849,-2.349 -2.749,-5.298 -2.749,-8.896 0,-0.7 0.1,-1.699 0.25,-3.049 0.15,-1.349 0.3,-2.449 0.45,-3.299 l 2.999,-16.343 z"
   style="fill:#98c000;fill-rule:nonzero"
   id="path2" />
        </g>
        <g
   transform="matrix(0.869481,0,0,0.869481,4.11434,10.9736)"
   id="g8">
            <path
   d="m 310.707,72.332 c 2.399,-0.85 4.498,-1.3 6.248,-1.3 1.899,0 3.498,0.55 4.798,1.649 1.249,1.05 1.849,2.599 1.849,4.749 0,0.599 -0.1,1.499 -0.3,2.748 -0.2,1.15 -0.35,2.2 -0.5,3.099 l -3.598,16.893 c -0.25,1.3 -0.5,2.649 -0.75,4.049 -0.25,1.449 -0.35,2.699 -0.35,3.748 0,4.049 1.1,7.447 3.349,10.146 2.149,2.699 5.998,4.299 11.545,4.748 l 6.348,-12.845 c -2.149,-0.349 -3.699,-1.149 -4.648,-2.399 -1,-1.199 -1.5,-2.898 -1.5,-5.048 0,-0.499 0.05,-1.099 0.15,-1.749 0.05,-0.65 0.15,-1.199 0.2,-1.599 l 3.649,-17.193 c 0.3,-1.45 0.55,-2.899 0.75,-4.349 0.199,-1.399 0.299,-2.798 0.299,-4.148 0,-4.948 -1.449,-8.946 -4.348,-11.895 -2.949,-2.949 -7.047,-4.448 -12.295,-4.448 -3.049,0 -5.948,0.499 -8.796,1.499 -2.799,0.95 -6.198,2.549 -10.146,4.898 -0.15,-0.949 -0.5,-2.099 -1,-3.399 -0.55,-1.249 -1.149,-2.349 -1.799,-3.348 l -13.395,5.748 c 1.15,1.749 2.049,3.598 2.599,5.497 0.5,1.9 0.75,3.699 0.75,5.348 0,0.85 -0.05,1.899 -0.2,3.049 -0.1,1.15 -0.25,2.049 -0.4,2.699 l -7.947,42.333 h 14.395 L 304.11,75.83 c 2.049,-1.549 4.248,-2.699 6.598,-3.498 z"
   style="fill:#98c000;fill-rule:nonzero"
   id="path6" />
        </g>
        <g
   transform="matrix(0.869481,0,0,0.869481,4.11434,10.9736)"
   id="g12">
            <path
   d="m 350.741,80.078 c -1.549,4.599 -2.299,9.497 -2.299,14.645 0,4.498 0.6,8.496 1.749,11.995 1.15,3.498 2.799,6.447 4.898,8.796 2.05,2.399 4.599,4.199 7.547,5.448 2.949,1.25 6.248,1.899 9.847,1.899 4.348,0 8.646,-0.799 12.944,-2.399 4.349,-1.599 8.147,-4.098 11.396,-7.447 l -5.398,-12.495 c -2.499,2.799 -5.248,4.898 -8.297,6.348 -3.049,1.449 -6.097,2.149 -9.096,2.149 -3.499,0 -6.248,-1.1 -8.247,-3.299 -1.949,-2.249 -2.949,-5.048 -2.949,-8.346 v -0.95 c 0,-0.4 0.05,-0.8 0.15,-1.2 2.649,-0.349 5.648,-0.799 8.997,-1.399 3.348,-0.6 6.747,-1.3 10.196,-2.099 3.448,-0.85 6.797,-1.799 10.096,-2.799 3.248,-1 6.147,-2.049 8.596,-3.099 v -5.747 c 0,-3.549 -0.55,-6.748 -1.649,-9.597 -1.15,-2.749 -2.649,-5.148 -4.598,-7.197 -1.95,-1.999 -4.299,-3.498 -6.948,-4.498 -2.599,-1.05 -5.447,-1.599 -8.496,-1.599 -4.448,0 -8.597,0.999 -12.345,2.949 -3.799,1.949 -7.047,4.648 -9.696,8.096 -2.749,3.399 -4.848,7.347 -6.398,11.846 z m 21.641,-10.096 c 1.55,-0.849 3.299,-1.249 5.248,-1.249 2.649,0 4.848,0.85 6.598,2.599 1.749,1.699 2.649,4.248 2.649,7.697 -1.45,0.45 -3.149,0.999 -5.148,1.549 -2.049,0.5 -4.099,1 -6.198,1.45 -2.149,0.45 -4.198,0.899 -6.247,1.299 -2.049,0.35 -3.799,0.65 -5.298,0.9 0.25,-2.099 0.7,-4.099 1.399,-5.948 0.75,-1.849 1.7,-3.498 2.849,-4.898 1.25,-1.399 2.599,-2.549 4.149,-3.398 z"
   style="fill:#98c000;fill-rule:nonzero"
   id="path10" />
        </g>
        <g
   transform="matrix(0.869481,0,0,0.869481,4.11434,10.9736)"
   id="g16"
   style="fill:#ffffff">
            <path
   d="m 404.17,140.454 c 0,-1.249 -0.2,-2.399 -0.6,-3.398 -0.4,-1 -0.95,-1.85 -1.599,-2.599 -0.7,-0.7 -1.5,-1.25 -2.449,-1.6 -0.95,-0.35 -2,-0.549 -3.099,-0.549 -1.45,0 -2.799,0.299 -4.049,0.849 -1.249,0.55 -2.349,1.35 -3.298,2.349 -0.95,1 -1.7,2.149 -2.249,3.499 -0.55,1.349 -0.85,2.799 -0.85,4.398 0,1.25 0.2,2.349 0.6,3.399 0.35,0.999 0.899,1.849 1.599,2.549 0.65,0.749 1.5,1.299 2.449,1.699 0.95,0.35 1.999,0.55 3.149,0.55 1.399,0 2.749,-0.3 3.998,-0.85 1.25,-0.55 2.349,-1.349 3.299,-2.349 0.95,-0.95 1.699,-2.149 2.249,-3.499 0.55,-1.349 0.85,-2.848 0.85,-4.448 z m -13.895,-0.05 c 0.3,-0.899 0.7,-1.699 1.2,-2.399 0.55,-0.699 1.199,-1.249 1.949,-1.699 0.75,-0.45 1.549,-0.65 2.499,-0.65 1.449,0 2.499,0.45 3.249,1.35 0.749,0.849 1.149,2.099 1.149,3.648 0,0.95 -0.15,1.899 -0.45,2.849 -0.249,0.9 -0.649,1.699 -1.199,2.399 -0.55,0.7 -1.2,1.25 -1.949,1.699 -0.75,0.4 -1.6,0.6 -2.499,0.6 -1.45,0 -2.499,-0.45 -3.249,-1.299 -0.75,-0.9 -1.149,-2.099 -1.149,-3.649 0,-0.949 0.149,-1.899 0.449,-2.849 z"
   style="fill-rule:nonzero;fill:#ffffff"
   id="path14" />
        </g>
        <g
   transform="matrix(0.869481,0,0,0.869481,4.11434,10.9736)"
   id="g20"
   style="fill:#ffffff">
            <path
   d="m 434.558,132.557 h -3.549 l -1.899,11.046 c -0.05,0.15 -0.1,0.4 -0.1,0.75 0,0.35 0,0.599 0,0.849 h -0.15 l -6.397,-12.645 h -3.349 l -3.349,18.743 h 3.599 l 1.999,-11.296 c 0.05,-0.149 0.05,-0.399 0.05,-0.649 0,-0.25 0,-0.55 0,-0.85 h 0.15 l 6.547,12.945 3.199,-0.3 z"
   style="fill-rule:nonzero;fill:#ffffff"
   id="path18" />
        </g>
        <g
   transform="matrix(0.869481,0,0,0.869481,4.11434,10.9736)"
   id="g24"
   style="fill:#ffffff">
            <path
   d="m 374.382,132.557 h -3.649 l -3.349,18.743 h 3.699 z"
   style="fill-rule:nonzero;fill:#ffffff"
   id="path22" />
        </g>
        <g
   transform="matrix(0.869481,0,0,0.869481,4.11434,10.9736)"
   id="g28"
   style="fill:#ffffff">
            <path
   d="m 328.95,132.557 h -4.248 c -0.8,1.35 -1.65,2.899 -2.599,4.549 -0.95,1.649 -1.85,3.348 -2.749,5.048 -0.9,1.699 -1.7,3.348 -2.449,4.948 -0.75,1.599 -1.35,2.998 -1.8,4.198 h 3.849 c 0.15,-0.35 0.3,-0.8 0.5,-1.25 0.2,-0.449 0.4,-0.949 0.65,-1.399 0.199,-0.45 0.399,-0.9 0.599,-1.349 0.2,-0.45 0.4,-0.85 0.55,-1.2 h 6.497 c 0.05,0.45 0.05,0.9 0.1,1.399 l 0.15,1.45 c 0.05,0.45 0.1,0.9 0.15,1.349 0.05,0.45 0.05,0.8 0.05,1.15 l 3.699,-0.3 c 0,-0.7 -0.05,-1.499 -0.15,-2.449 -0.05,-0.95 -0.2,-1.949 -0.35,-2.999 -0.15,-1.049 -0.3,-2.199 -0.5,-3.348 -0.15,-1.15 -0.35,-2.3 -0.599,-3.449 -0.2,-1.15 -0.4,-2.249 -0.65,-3.349 -0.25,-1.049 -0.45,-2.049 -0.7,-2.999 z m -2.349,5.548 c 0.1,0.55 0.2,1.15 0.3,1.799 0.1,0.6 0.2,1.2 0.25,1.75 0.1,0.55 0.15,0.949 0.2,1.299 h -4.649 c 0.25,-0.45 0.5,-0.949 0.75,-1.499 0.3,-0.55 0.6,-1.15 0.9,-1.749 0.35,-0.6 0.65,-1.15 0.949,-1.7 0.3,-0.55 0.55,-1.049 0.8,-1.399 h 0.2 c 0.1,0.4 0.2,0.899 0.3,1.499 z"
   style="fill-rule:nonzero;fill:#ffffff"
   id="path26" />
        </g>
        <g
   transform="matrix(0.869481,0,0,0.869481,4.11434,10.9736)"
   id="g32"
   style="fill:#ffffff">
            <path
   d="m 357.638,135.956 0.55,-3.399 h -12.795 l -0.549,3.399 h 4.548 l -2.649,15.344 h 3.648 l 2.699,-15.344 z"
   style="fill-rule:nonzero;fill:#ffffff"
   id="path30" />
        </g>
        <g
   transform="matrix(0.869481,0,0,0.869481,4.11434,10.9736)"
   id="g36"
   style="fill:#ffffff">
            <path
   d="m 297.462,132.308 c -1.049,0 -2.099,0.05 -3.148,0.149 -1.05,0.15 -2.049,0.3 -2.999,0.55 l -3.149,17.843 c 0.95,0.25 2.049,0.4 3.249,0.55 1.15,0.15 2.249,0.2 3.299,0.2 1.549,0 2.948,-0.25 4.298,-0.75 1.349,-0.55 2.549,-1.249 3.549,-2.199 0.999,-0.95 1.799,-2.099 2.399,-3.449 0.549,-1.349 0.849,-2.898 0.849,-4.598 0,-1.349 -0.2,-2.499 -0.599,-3.548 -0.45,-1.05 -1,-1.9 -1.75,-2.599 -0.749,-0.7 -1.649,-1.25 -2.649,-1.6 -1.049,-0.35 -2.149,-0.549 -3.348,-0.549 z m -0.799,3.398 c 0.75,0 1.449,0.1 2.099,0.25 0.65,0.15 1.2,0.45 1.649,0.85 0.5,0.4 0.9,0.899 1.15,1.549 0.25,0.6 0.4,1.35 0.4,2.299 0,1.2 -0.15,2.249 -0.5,3.199 -0.3,0.95 -0.75,1.749 -1.349,2.399 -0.6,0.65 -1.3,1.1 -2.15,1.449 -0.849,0.35 -1.749,0.5 -2.798,0.5 -0.45,0 -0.9,0 -1.45,-0.05 -0.55,-0.05 -1.049,-0.1 -1.399,-0.15 l 2.149,-12.095 c 0.3,-0.05 0.7,-0.1 1.149,-0.15 0.45,-0.05 0.8,-0.05 1.05,-0.05 z"
   style="fill-rule:nonzero;fill:#ffffff"
   id="path34" />
        </g>
        <g
   transform="matrix(0.869481,0,0,0.869481,4.11434,10.9736)"
   id="g40"
   style="fill:#ffffff">
            <path
   d="m 185.807,62.585 c 1.15,1.75 2.049,3.599 2.599,5.498 0.5,1.899 0.75,3.699 0.75,5.348 0,0.85 -0.05,1.899 -0.2,3.049 -0.1,1.149 -0.25,2.049 -0.4,2.699 l -7.947,42.333 h 14.394 L 203.45,75.83 c 2.049,-1.549 4.248,-2.699 6.597,-3.498 2.399,-0.85 4.499,-1.3 6.248,-1.3 1.899,0 3.499,0.55 4.798,1.649 1.25,1.05 1.849,2.599 1.849,4.749 0,0.599 -0.1,1.499 -0.3,2.748 -0.199,1.15 -0.349,2.2 -0.499,3.099 l -3.599,16.893 c -0.25,1.3 -0.5,2.649 -0.75,4.049 -0.249,1.449 -0.349,2.699 -0.349,3.748 0,4.049 1.099,7.447 3.348,10.146 2.149,2.699 5.998,4.299 11.546,4.748 l 6.347,-12.845 c -2.149,-0.349 -3.698,-1.149 -4.648,-2.399 -1,-1.199 -1.499,-2.898 -1.499,-5.048 0,-0.499 0.05,-1.099 0.15,-1.749 0.05,-0.65 0.15,-1.199 0.2,-1.599 l 3.648,-17.193 c 0.3,-1.45 0.55,-2.899 0.75,-4.349 0.2,-1.399 0.3,-2.798 0.3,-4.148 0,-4.948 -1.45,-8.946 -4.349,-11.895 -2.948,-2.949 -7.047,-4.448 -12.295,-4.448 -3.048,0 -5.947,0.499 -8.796,1.499 -2.799,0.95 -6.198,2.549 -10.146,4.898 -0.15,-0.949 -0.5,-2.099 -1,-3.399 -0.549,-1.249 -1.149,-2.349 -1.799,-3.348 l -13.395,5.748 z"
   style="fill-rule:nonzero;fill:#ffffff"
   id="path38" />
        </g>
        <g
   transform="matrix(0.869481,0,0,0.869481,4.11434,10.9736)"
   id="g44"
   style="fill:#ffffff">
            <path
   d="m 276.821,31.548 h -14.145 l -10.795,58.476 c -0.45,1.95 -0.8,3.999 -1.05,6.148 -0.25,2.099 -0.4,4.048 -0.4,5.848 0,5.797 1.1,10.545 3.349,14.244 2.249,3.699 6.048,5.898 11.395,6.597 l 6.498,-13.294 c -1.05,-0.5 -1.949,-1.05 -2.799,-1.65 -0.85,-0.549 -1.549,-1.299 -2.099,-2.149 -0.6,-0.849 -1.05,-1.849 -1.3,-3.049 -0.25,-1.199 -0.399,-2.699 -0.399,-4.448 0,-0.849 0.05,-1.799 0.149,-2.799 0.15,-1.049 0.3,-2.099 0.45,-3.198 z"
   style="fill-rule:nonzero;fill:#ffffff"
   id="path42" />
        </g>
        <g
   transform="matrix(0.869481,0,0,0.869481,4.11434,10.9736)"
   id="g48"
   style="fill:#ffffff">
            <path
   d="m 246.433,132.557 h -3.649 l -2.399,13.695 c -0.499,0.55 -1.099,1 -1.849,1.399 -0.75,0.35 -1.549,0.55 -2.449,0.55 -0.9,0 -1.599,-0.2 -2.099,-0.6 -0.55,-0.449 -0.8,-1.149 -0.8,-2.199 0,-0.2 0.05,-0.5 0.1,-0.899 0.05,-0.35 0.05,-0.7 0.1,-1 l 1.999,-10.946 h -3.698 l -1.949,10.896 c -0.05,0.45 -0.1,0.9 -0.15,1.35 -0.05,0.449 -0.05,0.799 -0.05,1.149 0,1 0.15,1.849 0.45,2.599 0.299,0.75 0.699,1.3 1.199,1.749 0.55,0.45 1.15,0.8 1.799,1 0.7,0.2 1.4,0.3 2.15,0.3 1.849,0 3.498,-0.55 4.998,-1.7 0,0.25 0,0.55 0.05,0.85 0,0.25 0,0.5 0.05,0.75 l 3.648,-0.25 c -0.05,-0.25 -0.05,-0.5 -0.05,-0.8 -0.05,-0.25 -0.05,-0.55 -0.05,-0.899 0,-0.6 0.05,-1.25 0.1,-1.9 0.05,-0.699 0.1,-1.349 0.25,-1.949 z"
   style="fill-rule:nonzero;fill:#ffffff"
   id="path46" />
        </g>
        <g
   transform="matrix(0.869481,0,0,0.869481,4.11434,10.9736)"
   id="g52"
   style="fill:#ffffff">
            <path
   d="m 276.621,132.557 h -3.549 l -1.899,11.046 c -0.05,0.15 -0.1,0.4 -0.1,0.75 0,0.35 0,0.599 0,0.849 h -0.15 l -6.397,-12.645 h -3.349 l -3.349,18.743 h 3.599 l 1.999,-11.296 c 0.05,-0.149 0.05,-0.399 0.05,-0.649 0,-0.25 0,-0.55 0,-0.85 h 0.15 l 6.548,12.945 3.198,-0.3 z"
   style="fill-rule:nonzero;fill:#ffffff"
   id="path50" />
        </g>
        <g
   transform="matrix(0.869481,0,0,0.869481,4.11434,10.9736)"
   id="g56"
   style="fill:#ffffff">
            <path
   d="m 214.796,134.457 c -0.7,-0.7 -1.5,-1.25 -2.449,-1.6 -0.95,-0.35 -2,-0.549 -3.099,-0.549 -1.45,0 -2.799,0.299 -4.049,0.849 -1.249,0.55 -2.349,1.35 -3.298,2.349 -0.95,1 -1.7,2.149 -2.249,3.499 -0.55,1.349 -0.85,2.799 -0.85,4.398 0,1.25 0.2,2.349 0.6,3.399 0.35,0.999 0.899,1.849 1.599,2.549 0.65,0.749 1.499,1.299 2.449,1.699 0.95,0.35 1.999,0.55 3.149,0.55 1.399,0 2.749,-0.3 3.998,-0.85 1.25,-0.55 2.349,-1.349 3.299,-2.349 0.95,-0.95 1.699,-2.149 2.249,-3.499 0.55,-1.349 0.85,-2.848 0.85,-4.448 0,-1.249 -0.2,-2.399 -0.6,-3.398 -0.4,-1 -0.95,-1.85 -1.599,-2.599 z m -10.496,3.548 c 0.55,-0.699 1.199,-1.249 1.949,-1.699 0.75,-0.45 1.549,-0.65 2.499,-0.65 1.449,0 2.499,0.45 3.249,1.35 0.749,0.849 1.149,2.099 1.149,3.648 0,0.95 -0.15,1.899 -0.45,2.849 -0.249,0.9 -0.649,1.699 -1.199,2.399 -0.55,0.7 -1.2,1.25 -1.949,1.699 -0.75,0.4 -1.6,0.6 -2.499,0.6 -1.45,0 -2.499,-0.45 -3.249,-1.299 -0.75,-0.9 -1.15,-2.099 -1.15,-3.649 0,-0.949 0.15,-1.899 0.45,-2.849 0.3,-0.899 0.7,-1.699 1.2,-2.399 z"
   style="fill-rule:nonzero;fill:#ffffff"
   id="path54" />
        </g>
        <g
   transform="matrix(0.869481,0,0,0.869481,4.11434,10.9736)"
   id="g60"
   style="fill:#ffffff">
            <path
   d="M 188.256,132.557 H 177.96 l -3.348,18.743 h 3.698 l 1.25,-7.147 h 6.747 l 0.6,-3.399 h -6.748 l 0.85,-4.798 h 6.647 z"
   style="fill-rule:nonzero;fill:#ffffff"
   id="path58" />
        </g>
        <g
   transform="matrix(0.869481,0,0,0.869481,4.11434,10.9736)"
   id="g64">
            <path
   d="M 127.081,44.893 C 128.43,33.947 125.681,24.101 118.884,15.404 112.087,6.708 103.19,1.66 92.245,0.31 81.299,-1.039 71.453,1.71 62.756,8.507 54.71,14.755 49.812,22.801 48.062,32.647 c -0.15,0.85 -0.3,1.65 -0.4,2.499 -0.1,0.85 -0.15,1.65 -0.199,2.449 -0.35,4.599 0.099,8.997 1.299,13.195 1.349,4.898 3.699,9.496 7.097,13.845 3.399,4.348 7.297,7.747 11.745,10.296 3.749,2.149 7.897,3.598 12.445,4.398 0.8,0.15 1.6,0.25 2.449,0.4 0.45,0.05 0.9,0.1 1.35,0.15 1.1,-4.449 2.799,-8.597 5.148,-12.346 -1.549,0.05 -3.149,0 -4.748,-0.149 -0.1,-0.05 -0.15,-0.05 -0.2,-0.05 -1.849,-0.25 -3.649,-0.6 -5.298,-1.15 -5.148,-1.649 -9.496,-4.698 -13.045,-9.246 -3.548,-4.548 -5.448,-9.496 -5.797,-14.894 -0.1,-1.75 -0.05,-3.499 0.199,-5.348 0,-0.05 0,-0.15 0,-0.2 0.95,-7.447 4.399,-13.495 10.346,-18.143 5.998,-4.648 12.745,-6.547 20.292,-5.598 7.547,0.9 13.645,4.349 18.293,10.346 4.648,5.998 6.547,12.745 5.648,20.292 -0.25,1.7 -0.55,3.299 -1,4.848 4.198,-1.349 8.597,-2.049 13.195,-1.999 0.05,-0.45 0.15,-0.9 0.2,-1.349 z"
   style="fill:#98c000;fill-rule:nonzero"
   id="path62" />
        </g>
        <g
   transform="matrix(0.869481,0,0,0.869481,4.11434,10.9736)"
   id="g68">
            <path
   d="m 132.329,51.49 c -0.85,-0.1 -1.65,-0.2 -2.499,-0.25 -4.599,-0.3 -8.997,0.15 -13.195,1.299 -4.898,1.35 -9.496,3.749 -13.845,7.148 -4.348,3.348 -7.747,7.247 -10.246,11.695 -2.149,3.748 -3.598,7.897 -4.448,12.445 4.349,0.75 8.347,1.999 12.045,3.848 0.25,-1.799 0.6,-3.498 1.1,-5.098 1.649,-5.147 4.698,-9.496 9.246,-13.044 4.548,-3.549 9.496,-5.498 14.944,-5.848 1.75,-0.1 3.499,-0.05 5.348,0.2 0.05,0 0.1,0 0.15,0 7.447,0.95 13.495,4.448 18.143,10.396 4.698,5.947 6.597,12.695 5.648,20.242 -0.95,7.547 -4.399,13.644 -10.346,18.342 -5.948,4.649 -12.695,6.498 -20.142,5.598 0.849,4.049 1.099,8.297 0.799,12.695 9.946,0.65 18.943,-2.199 26.99,-8.447 8.696,-6.797 13.744,-15.693 15.094,-26.639 1.349,-10.945 -1.4,-20.792 -8.197,-29.488 -6.298,-8.047 -14.344,-12.945 -24.14,-14.694 -0.85,-0.15 -1.65,-0.3 -2.449,-0.4 z"
   style="fill:#98c000;fill-rule:nonzero"
   id="path66" />
        </g>
        <g
   transform="matrix(0.869481,0,0,0.869481,4.11434,10.9736)"
   id="g72"
   style="fill:#ffffff">
            <path
   d="m 128.93,78.729 c -3.449,-0.4 -6.498,0.45 -9.246,2.599 -2.749,2.149 -4.299,4.898 -4.699,8.297 -0.449,3.448 0.4,6.497 2.549,9.246 2.15,2.749 4.898,4.298 8.347,4.698 3.399,0.45 6.448,-0.4 9.196,-2.549 2.749,-2.149 4.299,-4.898 4.749,-8.347 0.399,-3.398 -0.45,-6.447 -2.599,-9.196 -2.15,-2.749 -4.898,-4.298 -8.297,-4.748 z"
   style="fill-rule:nonzero;fill:#ffffff"
   id="path70" />
        </g>
        <g
   transform="matrix(0.869481,0,0,0.869481,4.11434,10.9736)"
   id="g76">
            <path
   d="m 12.826,73.631 c 0.95,-7.547 4.399,-13.695 10.396,-18.343 5.948,-4.648 12.645,-6.547 20.092,-5.597 -0.849,-4.049 -1.149,-8.297 -0.8,-12.695 -9.946,-0.65 -18.942,2.149 -26.989,8.446 -8.746,6.798 -13.744,15.694 -15.094,26.64 -1.348,10.945 1.35,20.741 8.197,29.488 6.248,8.047 14.294,12.945 24.14,14.694 0.8,0.15 1.6,0.25 2.449,0.4 0.85,0.1 1.65,0.2 2.499,0.25 4.599,0.3 8.997,-0.15 13.195,-1.3 4.848,-1.399 9.496,-3.798 13.845,-7.147 4.298,-3.399 7.697,-7.297 10.245,-11.695 2.15,-3.749 3.599,-7.897 4.449,-12.445 -4.349,-0.75 -8.347,-2.049 -12.045,-3.849 -0.25,1.75 -0.6,3.449 -1.1,5.098 -1.649,5.148 -4.698,9.497 -9.246,13.045 -4.549,3.549 -9.497,5.498 -14.894,5.848 -1.75,0.1 -3.549,0.05 -5.398,-0.2 -0.05,0 -0.1,0 -0.15,-0.05 C 29.17,103.269 23.122,99.821 18.474,93.873 13.776,87.875 11.877,81.128 12.826,73.631 Z"
   style="fill:#98c000;fill-rule:nonzero"
   id="path74" />
        </g>
        <g
   transform="matrix(0.869481,0,0,0.869481,4.11434,10.9736)"
   id="g80"
   style="fill:#ffffff">
            <path
   d="m 32.469,67.134 c -2.749,2.099 -4.299,4.898 -4.749,8.346 -0.399,3.349 0.45,6.398 2.599,9.147 2.1,2.749 4.848,4.348 8.297,4.798 3.449,0.35 6.497,-0.5 9.246,-2.599 2.699,-2.149 4.249,-4.948 4.698,-8.297 0.45,-3.449 -0.399,-6.547 -2.549,-9.246 -2.149,-2.749 -4.898,-4.299 -8.346,-4.698 -3.449,-0.45 -6.498,0.399 -9.196,2.549 z"
   style="fill-rule:nonzero;fill:#ffffff"
   id="path78" />
        </g>
        <g
   transform="matrix(0.869481,0,0,0.869481,4.11434,10.9736)"
   id="g84"
   style="fill:#ffffff">
            <path
   d="m 97.293,32.348 c -2.15,-2.749 -4.948,-4.299 -8.347,-4.699 -3.449,-0.449 -6.497,0.4 -9.196,2.549 -2.749,2.1 -4.349,4.898 -4.749,8.347 -0.449,3.399 0.45,6.447 2.599,9.196 2.1,2.699 4.849,4.299 8.297,4.749 3.399,0.349 6.448,-0.5 9.196,-2.599 2.749,-2.15 4.299,-4.948 4.749,-8.297 0.399,-3.449 -0.45,-6.547 -2.549,-9.246 z"
   style="fill-rule:nonzero;fill:#ffffff"
   id="path82" />
        </g>
        <g
   transform="matrix(0.869481,0,0,0.869481,4.11434,10.9736)"
   id="g88">
            <path
   d="m 85.047,88.425 c -0.449,-0.05 -0.899,-0.1 -1.349,-0.15 -1.1,4.448 -2.799,8.597 -5.148,12.345 1.549,-0.1 3.149,-0.05 4.798,0.15 0.05,0 0.1,0 0.15,0.05 1.849,0.2 3.599,0.55 5.298,1.1 5.148,1.649 9.496,4.748 13.045,9.296 3.548,4.498 5.448,9.446 5.797,14.894 0.1,1.749 0.05,3.499 -0.199,5.348 0,0.05 0,0.1 0,0.2 -0.95,7.447 -4.399,13.494 -10.346,18.143 -5.998,4.648 -12.745,6.547 -20.292,5.597 C 69.254,154.449 63.156,151 58.508,145.052 53.81,139.055 51.911,132.308 52.86,124.761 c 0.2,-1.7 0.55,-3.299 1.05,-4.849 -4.248,1.35 -8.647,2 -13.245,2 -0.05,0.45 -0.15,0.899 -0.2,1.349 -1.349,10.946 1.35,20.742 8.197,29.488 6.797,8.697 15.694,13.745 26.639,15.094 10.946,1.349 20.742,-1.399 29.489,-8.196 8.046,-6.298 12.944,-14.345 14.694,-24.191 0.15,-0.799 0.25,-1.599 0.4,-2.449 0.049,-0.849 0.149,-1.649 0.199,-2.449 0.3,-4.648 -0.15,-9.046 -1.299,-13.194 -1.35,-4.899 -3.749,-9.497 -7.097,-13.845 -3.399,-4.348 -7.297,-7.797 -11.696,-10.296 -3.798,-2.149 -7.946,-3.598 -12.495,-4.398 -0.799,-0.15 -1.599,-0.3 -2.449,-0.4 z"
   style="fill:#98c000;fill-rule:nonzero"
   id="path86" />
        </g>
        <g
   transform="matrix(0.869481,0,0,0.869481,4.11434,10.9736)"
   id="g92"
   style="fill:#ffffff">
            <path
   d="m 89.995,120.412 c -2.149,-2.749 -4.898,-4.298 -8.346,-4.748 -3.449,-0.4 -6.498,0.45 -9.196,2.599 -2.749,2.149 -4.299,4.898 -4.749,8.297 -0.449,3.448 0.45,6.497 2.599,9.246 2.1,2.749 4.848,4.298 8.297,4.698 3.449,0.45 6.497,-0.4 9.246,-2.549 2.699,-2.149 4.249,-4.898 4.698,-8.346 0.4,-3.399 -0.449,-6.448 -2.549,-9.197 z"
   style="fill-rule:nonzero;fill:#ffffff"
   id="path90" />
        </g>
    </g>
</svg>
